<?xml version="1.0"?>
<svg width="87.702" height="100" xmlns="http://www.w3.org/2000/svg">
 <g>
  <title>Layer 1</title>
  <path d="m34.462002,100c-9.209,0 -17.861,-3.598 -24.365999,-10.107002c-6.510004,-6.509995 -10.096003,-15.151001 -10.096003,-24.363998c0.006,-9.202999 3.586,-17.855 10.096,-24.359001l34.89,-34.126999c9.374001,-9.38 25.931999,-9.417 35.391998,0.049c9.765999,9.777002 9.765999,25.674 0,35.438l-31.389999,30.623001c-6.046001,6.044998 -15.981998,6.056999 -22.09,-0.049004c-6.105999,-6.118996 -6.105999,-16.048996 0,-22.155998l12.152,-12.149998l8.860001,8.859001l-12.152,12.149998c-0.802002,0.803001 -0.918003,1.731998 -0.918003,2.216999c0,0.482002 0.116001,1.412003 0.918003,2.221004c1.604,1.589996 2.827,1.589996 4.431,0l31.377003,-30.629005c4.834,-4.828997 4.834,-12.775999 -0.048004,-17.664997c-4.735001,-4.736001 -12.984001,-4.736001 -17.720001,0l-34.890999,34.126999c-4.092999,4.094002 -6.375999,9.596001 -6.375999,15.451c0,5.861 2.283,11.366997 6.424999,15.503998c8.285,8.297005 22.725998,8.297005 31.010998,0l15.665001,-15.664001l8.860001,8.859001l-15.665001,15.665001c-6.510994,6.509003 -15.162998,10.107002 -24.364994,10.107002z" fill="#857c78"/>
 </g>
</svg>