<?xml version="1.0"?>
<svg width="100" height="70" xmlns="http://www.w3.org/2000/svg">
 <g>
  <title>Layer 1</title>
  <g>
   <path d="m99.153999,32.912998l-31,-31.999998c-0.564003,-0.584 -1.342003,-0.913 -2.153999,-0.913h-63c-1.657,0 -3,1.343 -3,3v64c0,1.656998 1.343,3 3,3h63c0.811996,0 1.589996,-0.329002 2.154999,-0.913002l31,-31.999996c1.126999,-1.163002 1.126999,-3.011002 -0.000999,-4.174004zm-34.425003,31.087002h-58.728996v-58h58.728996l28.094002,29l-28.094002,29z" fill="#FFFFFF"/>
   <polygon points="51.647,12.863 35.5,29.293 19.353,12.863 13.647,18.471 29.892,35 13.647,51.53 19.353,57.138 35.5,40.708    51.647,57.138 57.353,51.53 41.108,35 57.353,18.471  " fill="#FFFFFF"/>
  </g>
 </g>
</svg>