<?xml version="1.0"?>
<svg width="100" height="100" xmlns="http://www.w3.org/2000/svg">
 <g>
  <title>Layer 1</title>
  <path fill="#645D5A" d="m100,100h-14.281998c0,-47.265999 -38.452003,-85.712 -85.718002,-85.712v-14.288c55.126999,0 100,44.861 100,100l0,0z"/>
  <path fill="#645D5A" d="m42.859001,100h-14.295002c0,-15.760002 -12.803999,-28.564003 -28.563999,-28.564003v-14.294998c23.632999,0 42.859001,19.225998 42.859001,42.859001l0,0z"/>
  <path fill="#645D5A" d="m71.424004,100h-14.283005c0,-31.505997 -25.645998,-57.140999 -57.140999,-57.140999v-14.289001c39.380009,0 71.424019,32.049999 71.424019,71.43l0,0l-0.000008,0l-0.000008,0z"/>
  <path fill="#645D5A" d="m14.282,100c0,-7.886002 -6.384,-14.281998 -14.282,-14.281998v14.281998h14.282l0,0z"/>
 </g>
</svg>