<?xml version="1.0"?>
<svg width="100" height="100" xmlns="http://www.w3.org/2000/svg">
 <g>
  <title>Layer 1</title>
  <g>
   <g>
    <polygon points="10.886,89.768 24.015,89.768 24.015,40.683 2.226,40.683   " fill="#3d302f" transform="rotate(180 50,50) "/>
    <path transform="rotate(180 50,50) " d="m97.773003,48.293999c0,-5.249001 -4.198013,-6.042 -4.198013,-6.042h-27.300003c0,0 -1.840996,-2.356998 -0.265999,-7.347c1.574013,-4.988998 1.841003,-12.335999 0.526001,-15.485998c-1.309006,-3.149 -3.674999,-8.926001 -9.713009,-9.187c-3.541,0.542 -4.724998,3.41 -4.724998,3.41v11.555c0,0 -11.283001,20.469999 -12.857002,20.730001c-1.578999,0.265999 -7.863997,1.053997 -7.863997,1.053997v36.225002h1.825998c0,0 13.384998,6.560997 16.007,6.560997c2.627998,0 33.077999,0 33.077999,0s4.723999,-1.053001 4.723999,-6.298996c0,-3.410004 -2.888,-5.515999 -2.888,-5.515999s7.091003,-0.523003 7.091003,-6.559013c0,-2.479004 -3.417,-4.724998 -3.417,-4.724998s6.564987,-1.314003 6.305,-6.824001c-0.527,-3.411999 -2.366005,-5.251999 -2.366005,-5.251999s6.037003,-1.051003 6.037003,-6.297997l0.000023,0.000008l0,-0.000004z" fill="#3d302f"/>
   </g>
  </g>
 </g>
</svg>