<?xml version="1.0"?>
<svg width="100" height="100" xmlns="http://www.w3.org/2000/svg">
 <g>
  <title>Layer 1</title>
  <path d="m90.813004,16.062h-55.773994c-0.562,-3.752 -2.354,-6.499001 -4.481998,-6.499001c-2.127001,0 -3.919001,2.747001 -4.482,6.499001h-17.435c-1.381,0 -2.5,1.118999 -2.5,2.5s1.119,2.5 2.5,2.5h17.435c0.562,3.751999 2.354,6.497999 4.482,6.497999c2.127998,0 3.919998,-2.746 4.481998,-6.497999h55.773994c1.380997,0 2.5,-1.118999 2.5,-2.5s-1.119003,-2.5 -2.5,-2.5z" fill="#f9f9f9"/>
  <path d="m90.813004,45.772999h-10.868004c-0.561996,-3.751999 -2.353996,-6.499001 -4.482002,-6.499001s-3.918999,2.747002 -4.480995,6.499001h-62.342002c-1.381001,0 -2.5,1.118999 -2.5,2.5s1.119,2.5 2.5,2.5h62.342002c0.561996,3.752003 2.353996,6.498001 4.480995,6.498001s3.920013,-2.745998 4.482002,-6.498001h10.868004c1.380997,0 2.5,-1.118999 2.5,-2.5s-1.119003,-2.5 -2.5,-2.5z" fill="#f9f9f9"/>
  <path d="m90.813004,75.484001h-42.616005c-0.562,-3.750999 -2.354,-6.498001 -4.481998,-6.498001c-2.126999,0 -3.918999,2.747002 -4.481998,6.498001h-30.593001c-1.381001,0 -2.5,1.118996 -2.5,2.5s1.119,2.5 2.5,2.5h30.593001c0.561996,3.751999 2.354,6.499001 4.481998,6.499001c2.127998,0 3.919998,-2.747002 4.481998,-6.499001h42.616005c1.380997,0 2.5,-1.119003 2.5,-2.5s-1.119003,-2.5 -2.5,-2.5z" fill="#f9f9f9"/>
 </g>
</svg>