<?xml version="1.0"?>
<svg width="100" height="100" xmlns="http://www.w3.org/2000/svg">
 <g>
  <title>Layer 1</title>
  <path fill-rule="evenodd" clip-rule="evenodd" fill="#f9f9f9" d="m48.678001,58.377998c2.990997,2.287003 11.868999,4.375 18.997002,8.247002c2.349998,1.278 2.551987,3.168999 2.727997,4.311996c0.176003,1.145004 0.550003,13.980003 0.550003,13.980003h-69.276003c0,0 0.372,-12.835999 0.549,-13.980003c0.176,-1.143997 0.191,-2.879997 2.728,-4.311996c7.063,-3.988998 15.967,-5.827999 18.959,-8.115002c1.188,-0.908997 0.879,-2.375999 1.143,-3.785c0.266001,-1.406998 1.145,-0.438999 1.145,-1.935997c0,-1.504002 0.281,-1.242001 0.115999,-3.241001c-0.143999,-1.741001 -2.533998,-1.928001 -2.667999,-5.188c-0.028,-0.687 -1.231001,-1.145 -1.936001,-2.199001c-0.705,-1.056999 -1.848999,-2.903999 -1.848999,-5.016998c0,-2.111 0.440001,-1.584 0.440001,-4.225002c0,-2.639999 -0.099001,-4.169998 1.407999,-10.296c0.562,-2.285 2.474001,-4.963999 4.389,-6.175999c2.582001,-1.634001 1.545,0.545 10.219,-1.392c5.624001,-1.255 14.431999,4.576 14.521,9.24c0.118,6.308001 0.504002,5.834 0.878002,8.448c0.264,1.848 0.792,1.407001 0.792,3.519001c0,2.112999 -1.145,4.752998 -1.847,5.808998c-0.704002,1.056 -1.357002,2.75 -1.446003,3.431999c-0.459999,3.525002 -2.813,2.710003 -2.911999,4.598003c-0.09,1.724998 -0.201,1.503998 0.056,2.848c0.216,1.124001 0.871002,-0.072002 1.135002,1.335999c0.261997,1.409 0.078999,3.479 1.181,4.092999z"/>
  <g>
   <path fill-rule="evenodd" clip-rule="evenodd" fill="#f9f9f9" d="m64.039001,46.415001c0.490997,0.736 1.331001,1.056 1.349998,1.534c0.095001,2.274998 1.761002,2.403999 1.862,3.618999c0.114998,1.395 -0.083,1.210999 -0.083,2.260998c0,1.043003 -0.612,0.368 -0.797997,1.350002c-0.184013,0.980999 0.031998,2.006001 -0.796013,2.640999c-0.938004,0.716999 -2.701,1.387001 -4.806999,2.153c3.029999,1.125 6.372002,2.450001 9.513,4.097c3.386002,1.773003 3.455002,3.961998 3.716995,5.660004c0.092995,0.600998 0.212006,3.427986 0.318001,6.509987h24.065994c0,0 -0.260994,-8.952003 -0.383003,-9.750999c-0.123001,-0.798004 -0.209,-2.082001 -1.901001,-3.007999c-4.960999,-2.714001 -11.160995,-4.158001 -13.246994,-5.753002c-0.770004,-0.43 -0.644005,-1.873001 -0.825005,-2.855c-0.185997,-0.980999 -0.642998,-0.147999 -0.792,-0.931999c-0.181,-0.938 -0.103996,-0.784 -0.039001,-1.985001c0.067001,-1.318001 1.709,-0.75 2.030006,-3.208c0.061996,-0.475998 0.518997,-1.657001 1.007996,-2.394001c0.492004,-0.736 1.290001,-2.577999 1.290001,-4.051998c0,-1.473 -0.368004,-1.166 -0.553001,-2.453999c-0.260002,-1.824001 -0.529999,-1.493 -0.612999,-5.894001c-0.061996,-3.253 -6.205002,-7.321001 -10.128014,-6.445002c-6.050987,1.351 -5.327995,-0.168999 -7.127998,0.971001c-1.334999,0.844999 -2.669998,2.714001 -3.061996,4.309c-1.052002,4.271999 -0.983002,5.34 -0.983002,7.181999c0,1.841 -0.306999,1.473999 -0.306999,2.945999c0.000999,1.473003 0.799,2.762001 1.291,3.498001l0.000031,0.000011z"/>
  </g>
 </g>
</svg>