<?xml version="1.0"?>
<svg width="100" height="61" xmlns="http://www.w3.org/2000/svg">
 <g>
  <title>Layer 1</title>
  <path d="m89,0c-6.074997,0 -11,4.925 -11,11c0,2.314 0.719002,4.46 1.939003,6.232l-4.207001,4.206999c-1.772003,-1.219999 -3.917999,-1.938999 -6.232002,-1.938999s-4.459999,0.719 -6.231998,1.938999l-4.207001,-4.206999c1.219997,-1.772 1.938999,-3.918 1.938999,-6.232c0,-6.075 -4.924999,-11 -11,-11s-11,4.925 -11,11c0,2.314 0.719002,4.46 1.939999,6.232l-4.208,4.206999c-1.771999,-1.219999 -3.917,-1.938999 -6.231997,-1.938999s-4.459999,0.719 -6.232,1.938999l-4.208,-4.206999c1.221001,-1.772 1.940001,-3.918 1.940001,-6.232c0,-6.075 -4.924999,-11 -11,-11s-11,4.925 -11,11s4.925,11 11,11c2.315001,0 4.46,-0.719 6.232,-1.938999l4.208,4.206999c-1.221001,1.772001 -1.940001,3.918001 -1.940001,6.232c0,6.075001 4.924997,11 11,11c2.314997,0 4.459997,-0.719002 6.231997,-1.938999l4.208,4.206997c-1.220997,1.772003 -1.939999,3.918003 -1.939999,6.232002c0,6.075001 4.924999,11 11,11s11,-4.924999 11,-11c0,-2.313999 -0.719002,-4.459999 -1.938999,-6.231998l4.207001,-4.207001c1.771999,1.219997 3.917995,1.938999 6.231998,1.938999c6.074997,0 11,-4.924999 11,-11.000002c0,-2.313997 -0.719002,-4.459997 -1.939003,-6.231998l4.207001,-4.206999c1.772003,1.219999 3.917999,1.938999 6.232002,1.938999c6.074997,0 11,-4.924999 11,-11s-4.925003,-11 -11,-11zm-28.561001,36.731998l-4.207001,4.207001c-1.771999,-1.219997 -3.917999,-1.938999 -6.231998,-1.938999c-2.314999,0 -4.459999,0.719002 -6.231998,1.938999l-4.208,-4.207001c1.220997,-1.771999 1.939999,-3.917999 1.939999,-6.231998s-0.719002,-4.459999 -1.939999,-6.231997l4.208,-4.207003c1.771999,1.219999 3.917,1.938999 6.231998,1.938999c2.313999,0 4.459999,-0.719 6.231998,-1.938999l4.207001,4.206999c-1.219997,1.772001 -1.938999,3.918001 -1.938999,6.232s0.719002,4.459999 1.938999,6.231998z" fill="#f9f9f9"/>
 </g>
</svg>