<?xml version="1.0"?>
<svg width="100" height="100" xmlns="http://www.w3.org/2000/svg">
 <g>
  <title>Layer 1</title>
  <path fill="#757c78" d="m88.894997,11.105c-14.806999,-14.806999 -38.811996,-14.806999 -53.618996,0c-14.807001,14.806 -14.807001,38.812 0,53.618999c14.806999,14.806999 38.811996,14.806999 53.618996,0s14.807014,-38.811998 0,-53.618999zm-4.232986,49.387001c-12.469002,12.467999 -32.684002,12.467999 -45.153,0c-12.468,-12.469002 -12.468,-32.685001 0,-45.153001c12.468998,-12.468 32.684998,-12.469 45.153,0s12.467987,32.683 0,45.153001z"/>
  <rect height="39.91" width="11.973" transform="matrix(0.7071,0.7071,-0.7071,0.7071,63.1103,10.9445) " y="61.701" x="12.357" fill="#757c78"/>
 </g>
</svg>