<?xml version="1.0"?>
<svg width="100" height="100" xmlns="http://www.w3.org/2000/svg">
 <g>
  <title>Layer 1</title>
  <path d="m98.767998,17.632999l-15.699997,15.698002h-16.405998v-16.662001l15.503998,-15.497001c-2.282997,-0.69 -4.664001,-1.172 -7.166,-1.172c-13.806999,0 -25,11.2 -25,25c0,3.851999 0.938999,7.452 2.501999,10.717999l-50.060999,50.049c-1.501,1.513 -2.441,3.588013 -2.441,5.908005c0,4.589996 3.723,8.324997 8.338,8.324997c2.307,0 4.395,-0.928001 5.882999,-2.441002l50.073998,-50.054996c3.246002,1.549999 6.859001,2.495998 10.705002,2.495998c13.806999,0 25,-11.200001 25,-25c0,-2.582001 -0.5,-5.023001 -1.232002,-7.367001z" fill="#F5F5F5"/>
 </g>
</svg>